<?xml version="1.0" encoding="utf-8"?>
<!-- Generator: Adobe Illustrator 24.3.0, SVG Export Plug-In . SVG Version: 6.00 Build 0)  -->
<svg version="1.1" id="Layer_1" xmlns="http://www.w3.org/2000/svg" xmlns:xlink="http://www.w3.org/1999/xlink" x="0px" y="0px"
	 viewBox="0 0 512 512" style="enable-background:new 0 0 512 512;" xml:space="preserve">
<style type="text/css">
	.st0{fill:#FF8B00;}
</style>
<path class="st0" d="M187.9,329.8c1.4,0,2.9-0.5,4-1.6l52.7-52.7c3.4,2,7.3,3.1,11.4,3.1c5.7,0,10.9-2.1,14.9-5.6h70.3
	c9.3,0,16.9-7.6,16.9-16.9s-7.6-16.9-16.9-16.9h-68.2v-90.8c0-9.3-7.6-16.9-16.9-16.9s-16.9,7.6-16.9,16.9v92.8
	c-3.5,4-5.6,9.2-5.6,14.9c0,4.2,1.1,8.1,3.1,11.4l-52.7,52.7c-2.2,2.2-2.2,5.8,0,8C185,329.2,186.4,329.8,187.9,329.8z M277.8,250.4
	h63.3c3.1,0,5.6,2.5,5.6,5.6c0,3.1-2.5,5.6-5.6,5.6h-63.3c0.5-1.8,0.7-3.7,0.7-5.6S278.3,252.2,277.8,250.4z M250.4,148.4
	c0-3.1,2.5-5.6,5.6-5.6c3.1,0,5.6,2.5,5.6,5.6v85.8c-1.8-0.5-3.7-0.7-5.6-0.7s-3.8,0.2-5.6,0.7V148.4z M256,244.8
	c6.2,0,11.2,5,11.2,11.2s-5,11.2-11.2,11.2s-11.2-5-11.2-11.2S249.8,244.8,256,244.8z M256,403c81.1,0,147-65.9,147-147
	s-65.9-147-147-147s-147,65.9-147,147S174.9,403,256,403z M256,120.2c74.9,0,135.8,60.9,135.8,135.8S330.9,391.8,256,391.8
	S120.2,330.9,120.2,256S181.1,120.2,256,120.2z M448,256c0,51.3-20,99.5-56.2,135.8C355.5,428,307.3,448,256,448
	s-99.5-20-135.8-56.2C84,355.5,64,307.3,64,256c0-47,17.2-92.2,48.3-127.3c2.1-2.3,5.6-2.5,7.9-0.5c2.3,2.1,2.5,5.6,0.5,7.9
	C91.4,169.2,75.2,211.8,75.2,256c0,99.7,81.1,180.8,180.8,180.8S436.8,355.7,436.8,256S355.7,75.2,256,75.2
	c-44.2,0-86.8,16.1-119.9,45.5c-2.3,2.1-5.9,1.8-7.9-0.5c-2.1-2.3-1.8-5.9,0.5-7.9C163.8,81.2,209,64,256,64
	c51.3,0,99.5,20,135.8,56.2C428,156.5,448,204.7,448,256z"/>
</svg>
