<?xml version="1.0" encoding="utf-8"?>
<!-- Generator: Adobe Illustrator 24.3.0, SVG Export Plug-In . SVG Version: 6.00 Build 0)  -->
<svg version="1.1" id="Layer_1" xmlns="http://www.w3.org/2000/svg" xmlns:xlink="http://www.w3.org/1999/xlink" x="0px" y="0px"
	 viewBox="0 0 512 512" style="enable-background:new 0 0 512 512;" xml:space="preserve">
<style type="text/css">
	.st0{fill:#FF8B00;}
</style>
<path class="st0" d="M442.4,62.9c-20.3,0-37.1,15.6-39.2,35.4l-289.5,95.5H96.8c-2.3-6.6-8.6-11.3-15.9-11.3
	c-9.3,0-16.9,7.6-16.9,17v113.2c0,9.4,7.6,17,16.9,17c7.3,0,13.6-4.7,15.9-11.3h16.9l33.9,11.2l-1.8,5.4
	c-8.7,26.7,5.8,55.5,32.3,64.3l42.8,14.1c5.2,1.7,10.5,2.6,15.8,2.6c7.8,0,15.6-1.9,22.8-5.5c12.1-6.1,21-16.6,25.2-29.6l1.8-5.4
	l116.6,38.5c2.1,19.9,18.8,35.4,39.2,35.4c3.1,0,5.6-2.5,5.6-5.7v-375C448,65.4,445.5,62.9,442.4,62.9z M177.9,345.4l1.8-5.4
	l74.8,24.7l-1.8,5.4c-1.4,4.3-4.4,7.8-8.4,9.9c-4,2-8.6,2.4-12.9,1l-42.8-14.1c-4.3-1.4-7.8-4.4-9.8-8.5
	C176.9,354.3,176.5,349.7,177.9,345.4z M120.2,308.5v-105L403,110.3v291.5L120.2,308.5z M86.5,222v90.5c0,3.1-2.5,5.7-5.6,5.7
	s-5.6-2.5-5.6-5.7V199.4c0-3.1,2.5-5.7,5.6-5.7s5.6,2.5,5.6,5.7c0,3.1,2.5,5.7,5.6,5.7H109v101.9H97.8V222c0-3.1-2.5-5.7-5.6-5.7
	S86.5,218.9,86.5,222z M274.2,377.1c-3.3,10.1-10.2,18.2-19.6,23s-20.1,5.6-30,2.3l-42.8-14.1c-20.6-6.8-31.9-29.2-25.2-50l1.8-5.4
	l10.7,3.5l-1.8,5.4c-2.3,7.2-1.8,14.8,1.6,21.6c3.4,6.7,9.2,11.8,16.3,14.1l42.8,14.1c2.9,1,5.8,1.4,8.8,1.4c4.4,0,8.7-1,12.7-3.1
	c6.7-3.4,11.7-9.2,14-16.4l1.8-5.4l10.7,3.5L274.2,377.1z M436.8,437.3c-12.8-2.6-22.5-14.1-22.5-27.7V102.5
	c0-13.7,9.7-25.1,22.5-27.7V437.3z"/>
</svg>
