<?xml version="1.0" encoding="utf-8"?>
<!-- Generator: Adobe Illustrator 24.3.0, SVG Export Plug-In . SVG Version: 6.00 Build 0)  -->
<svg version="1.1" id="Search" xmlns="http://www.w3.org/2000/svg" xmlns:xlink="http://www.w3.org/1999/xlink" x="0px" y="0px"
	 viewBox="0 0 512 512" style="enable-background:new 0 0 512 512;" xml:space="preserve">
<style type="text/css">
	.st0{fill:#FF8B00;}
</style>
<path class="st0" d="M410.2,101.8c-50.5-50.5-132.5-50.5-183,0C180.8,148.2,177,221.4,216,272.1l-9.4,9.4c-6.3-3-14-1.9-19.2,3.3
	L72.2,400c-5.3,5.3-8.2,12.4-8.2,19.9s2.9,14.6,8.2,19.9c5.3,5.3,12.4,8.2,19.9,8.2s14.6-2.9,19.9-8.2l115.1-115.1
	c5.2-5.2,6.3-12.9,3.3-19.2l9.4-9.4c23.1,17.8,51,26.7,78.8,26.7c33.1,0,66.3-12.6,91.5-37.8C460.6,234.4,460.6,152.3,410.2,101.8z
	 M100.1,419.9l99.2-99.2l8,8L108,427.8L100.1,419.9z M92.1,411.9l-8-8l99.2-99.2l8,8L92.1,411.9z M80.2,431.8
	c-3.2-3.2-4.9-7.4-4.9-11.9c0-2.6,0.6-5,1.7-7.3l22.5,22.5c-2.2,1.1-4.7,1.7-7.3,1.7C87.6,436.7,83.4,435,80.2,431.8z M219.2,316.7
	l-4,4l-23.9-23.9l4-4c1.1-1.1,2.5-1.6,4-1.6c1.4,0,2.9,0.5,4,1.6l15.9,15.9C221.4,310.9,221.4,314.5,219.2,316.7z M223.2,296.8l-8-8
	l8-8c1.3,1.4,2.6,2.7,3.9,4.1c1.3,1.3,2.7,2.6,4.1,3.9L223.2,296.8z M402.2,276.9c-46.1,46.1-121,46.1-167.1,0
	c-46.1-46.1-46.1-121,0-167.1c23-23,53.3-34.5,83.5-34.5s60.5,11.5,83.5,34.5C448.3,155.9,448.3,230.8,402.2,276.9z M425.6,193.3
	c0,58.9-48,106.9-106.9,106.9s-106.9-48-106.9-106.9c0-24.5,8.1-47.6,23.4-66.7c1.9-2.4,5.5-2.8,7.9-0.9c2.4,1.9,2.8,5.5,0.9,7.9
	c-13.7,17.1-20.9,37.7-20.9,59.7c0,52.7,42.9,95.6,95.6,95.6s95.6-42.9,95.6-95.6s-42.9-95.6-95.6-95.6c-21.9,0-42.6,7.2-59.7,20.9
	c-2.4,1.9-6,1.5-7.9-0.9c-1.9-2.4-1.5-6,0.9-7.9c19.1-15.3,42.2-23.4,66.7-23.4C377.6,86.4,425.6,134.4,425.6,193.3z"/>
</svg>
